<svg width="380" height="526" viewBox="0 0 380 526" fill="none" xmlns="http://www.w3.org/2000/svg">
<path d="M1.9375 421.189H377.191L187.522 0L1.9375 421.189Z" fill="url(#paint0_linear_251_713)"/>
<ellipse cx="189.568" cy="433.805" rx="189.568" ry="92.1958" fill="white"/>
<path d="M160.665 460.701L168.514 456.169L175.732 460.336L167.882 464.867L183.22 473.722L175.641 478.097L160.304 469.242L131.163 486.066L122.321 482.628L112.487 441.638L120.065 437.263L160.665 460.701ZM130.531 476.534L132.155 477.159L153.086 465.076L125.388 449.086L124.125 449.815L130.531 476.534Z" fill="#101010"/>
<path d="M158.103 414.262C173.802 405.199 194.733 410.824 211.875 420.72C229.017 430.616 238.76 442.7 223.062 451.762C207.364 460.825 186.433 455.2 169.291 445.304C152.149 435.408 142.405 423.324 158.103 414.262ZM165.321 418.428C154.494 424.679 162.885 432.647 177.05 440.825C183.185 444.366 189.229 447.231 195.003 448.898L176.328 415.616C172.448 415.564 168.749 416.449 165.321 418.428ZM215.844 447.596C226.671 441.346 218.28 433.377 204.116 425.199C198.251 421.814 192.387 418.949 186.793 417.283L205.469 450.46C209.078 450.356 212.596 449.471 215.844 447.596Z" fill="#101010"/>
<path d="M277.249 420.48C266.603 426.626 254.784 427.928 244.95 426.418L246.123 420.428C255.326 421.47 262.904 420.22 269.851 416.209C277.43 411.834 278.152 406.209 271.024 402.094C263.446 397.719 254.694 398.709 246.665 403.344L238.906 407.824L231.688 403.657L238.184 399.907C246.123 395.323 246.123 390.427 239.537 386.625C233.131 382.927 225.643 383.813 219.689 387.25C214.727 390.115 212.471 394.021 213.915 400.271L203.629 400.896C202.366 394.855 203.178 388.24 212.11 383.084C223.117 376.729 236.921 376.156 246.665 381.781C253.702 385.844 254.514 390.167 252.168 394.438L253.251 395.063C261.28 392.511 270.753 392.771 278.963 397.511C289.88 403.813 289.429 413.449 277.249 420.48Z" fill="#101010"/>
<defs>
<linearGradient id="paint0_linear_251_713" x1="189.564" y1="0" x2="189.564" y2="402.427" gradientUnits="userSpaceOnUse">
<stop stop-color="#101010"/>
<stop offset="0.875" stop-color="#CFCFCF"/>
</linearGradient>
</defs>
</svg>
