<svg width="380" height="526" viewBox="0 0 380 526" fill="none" xmlns="http://www.w3.org/2000/svg">
<path d="M1.9375 421.189H377.191L187.522 0L1.9375 421.189Z" fill="url(#paint0_linear_237_990)"/>
<ellipse cx="189.568" cy="433.805" rx="189.568" ry="92.1958" fill="white"/>
<path d="M156.654 463.97L165.205 459.034L173.067 463.573L164.517 468.509L181.224 478.154L172.969 482.92L156.261 473.275L124.518 491.601L114.886 487.856L104.174 443.205L112.429 438.439L156.654 463.97ZM123.83 481.218L125.599 481.899L148.399 468.736L118.228 451.318L116.852 452.113L123.83 481.218Z" fill="black"/>
<path d="M153.864 413.384C170.965 403.512 193.765 409.64 212.438 420.419C231.111 431.199 241.725 444.362 224.624 454.234C207.524 464.106 184.724 457.978 166.051 447.199C147.378 436.419 136.764 423.256 153.864 413.384ZM161.727 417.923C149.933 424.731 159.073 433.412 174.503 442.319C181.186 446.177 187.77 449.298 194.06 451.113L173.716 414.859C169.49 414.802 165.461 415.767 161.727 417.923ZM216.762 449.695C228.556 442.887 219.416 434.206 203.986 425.299C197.598 421.611 191.21 418.49 185.117 416.675L205.46 452.816C209.391 452.702 213.224 451.738 216.762 449.695Z" fill="black"/>
<path d="M274.511 395.932L283.061 390.996L290.924 395.534L282.373 400.47L299.081 410.116L290.825 414.881L274.118 405.236L242.374 423.562L232.743 419.817L222.031 375.166L230.286 370.4L274.511 395.932ZM241.686 413.179L243.455 413.86L266.256 400.697L236.085 383.28L234.709 384.074L241.686 413.179Z" fill="black"/>
<defs>
<linearGradient id="paint0_linear_237_990" x1="189.564" y1="0" x2="189.564" y2="402.427" gradientUnits="userSpaceOnUse">
<stop stop-color="#101010"/>
<stop offset="0.875" stop-color="#CFCFCF"/>
</linearGradient>
</defs>
</svg>
