<svg width="380" height="526" viewBox="0 0 380 526" fill="none" xmlns="http://www.w3.org/2000/svg">
<path d="M1.9375 421.189H377.191L187.522 0L1.9375 421.189Z" fill="url(#paint0_linear_251_707)"/>
<ellipse cx="189.568" cy="433.805" rx="189.568" ry="92.1958" fill="white"/>
<path d="M166.8 485.292C157.558 490.628 144.897 492.815 134.268 491.055L135.377 484.972C144.897 485.986 152.752 484.652 159.222 480.917C166.061 476.969 169.296 470.94 158.76 464.857C148.224 458.775 137.965 460.749 130.479 465.071C125.858 467.739 124.379 470.193 123.362 472.914L115.599 476.115L86.3013 456L119.573 436.793L126.967 441.061L100.349 456.427L115.137 466.778L116.616 467.205C117.817 464.591 120.22 462.243 123.917 460.109C134.823 453.813 152.198 451.572 166.893 460.162C179.924 467.792 180.386 477.449 166.8 485.292Z" fill="#101010"/>
<path d="M156.228 414.565C172.31 405.281 193.751 411.043 211.311 421.181C228.872 431.318 238.853 443.696 222.772 452.98C206.69 462.264 185.249 456.502 167.689 446.364C150.128 436.227 140.147 423.848 156.228 414.565ZM163.622 418.833C152.531 425.236 161.127 433.399 175.637 441.776C181.921 445.404 188.114 448.338 194.029 450.046L174.897 415.952C170.923 415.898 167.134 416.805 163.622 418.833ZM215.378 448.712C226.469 442.309 217.873 434.146 203.363 425.769C197.356 422.301 191.348 419.367 185.618 417.659L204.75 451.646C208.446 451.54 212.051 450.632 215.378 448.712Z" fill="#101010"/>
<path d="M211.645 382.572C227.726 373.289 249.168 379.051 266.728 389.188C284.288 399.326 294.27 411.704 278.189 420.988C262.107 430.272 240.665 424.509 223.105 414.372C205.545 404.235 195.564 391.856 211.645 382.572ZM219.039 386.841C207.948 393.243 216.543 401.407 231.054 409.783C237.338 413.412 243.53 416.346 249.445 418.053L230.314 383.96C226.34 383.906 222.551 384.813 219.039 386.841ZM270.795 416.72C281.885 410.317 273.29 402.154 258.78 393.777C252.773 390.309 246.765 387.374 241.035 385.667L260.166 419.654C263.863 419.547 267.468 418.64 270.795 416.72Z" fill="#101010"/>
<defs>
<linearGradient id="paint0_linear_251_707" x1="189.564" y1="0" x2="189.564" y2="402.427" gradientUnits="userSpaceOnUse">
<stop stop-color="#101010"/>
<stop offset="0.875" stop-color="#CFCFCF"/>
</linearGradient>
</defs>
</svg>
