<svg width="163" height="213" viewBox="0 0 163 213" fill="none" xmlns="http://www.w3.org/2000/svg">
<path d="M113 0C140.614 0 163 22.3858 163 50V163C163 190.614 140.614 213 113 213H50C22.3858 213 0 190.614 0 163V50C2.64181e-06 22.3858 22.3858 1.17578e-06 50 0H113ZM67.1191 29.9199C58.7671 29.9199 55.791 38.0802 55.791 47.2002C55.7911 56.3201 58.7672 64.4805 67.1191 64.4805C75.4708 64.4802 78.4462 56.32 78.4463 47.2002C78.4463 38.0803 75.4708 29.9202 67.1191 29.9199ZM94.3643 30.4004L85.6279 38.1758V43.2637L93.7402 36.1123H94.3164V60.4482H85.6279V64H107.132V60.4482H98.3477V30.4004H94.3643ZM73.3584 38.9443C74.0783 41.2003 74.3184 44.0803 74.3184 47.2002C74.3183 54.7359 72.8788 60.6394 67.1191 60.6396C65.3913 60.6396 64.047 60.112 63.0391 59.2002L73.3584 38.9443ZM67.1191 33.7598C68.9428 33.7598 70.3349 34.3358 71.3428 35.3916L60.9746 55.6963C60.2066 53.3923 59.919 50.4641 59.9189 47.2002C59.9189 39.6642 61.3591 33.7598 67.1191 33.7598Z" fill="white"/>
</svg>
