<svg width="163" height="94" viewBox="0 0 163 94" fill="none" xmlns="http://www.w3.org/2000/svg">
<path d="M116 0C141.957 0 163 21.0426 163 47C163 72.9574 141.957 94 116 94H47C21.0426 94 0 72.9574 0 47C0 21.0426 21.0426 0 47 0H116ZM67.1191 29.9199C58.7671 29.9199 55.791 38.0802 55.791 47.2002C55.7911 56.3201 58.7672 64.4805 67.1191 64.4805C75.4708 64.4802 78.4462 56.32 78.4463 47.2002C78.4463 38.0803 75.4708 29.9202 67.1191 29.9199ZM95.8037 29.9199C90.5239 29.92 87.1638 32.7521 84.7158 35.8721L87.7402 38.3203C90.3321 35.0565 92.8758 33.8566 95.8516 33.8564C99.6916 33.8564 102.476 36.0641 102.476 40.2881C102.476 44.8959 99.7879 48.3517 93.7402 53.1035L84.8604 60.0645L85.6279 64H107.084V60.1602H91.1484L90.9561 59.4883L96.5244 55.4561C103.676 50.2721 106.7 46.0959 106.7 40.3359C106.7 33.952 102.524 29.9199 95.8037 29.9199ZM73.3584 38.9443C74.0783 41.2003 74.3184 44.0803 74.3184 47.2002C74.3183 54.7359 72.8788 60.6394 67.1191 60.6396C65.3913 60.6396 64.047 60.112 63.0391 59.2002L73.3584 38.9443ZM67.1191 33.7598C68.9428 33.7598 70.3349 34.3358 71.3428 35.3916L60.9746 55.6963C60.2066 53.3923 59.919 50.4641 59.9189 47.2002C59.9189 39.6642 61.3591 33.7598 67.1191 33.7598Z" fill="white" fill-opacity="0.3"/>
</svg>
