<svg width="40" height="41" viewBox="0 0 40 41" fill="none" xmlns="http://www.w3.org/2000/svg">
<path d="M28.75 18.5736C28.75 23.1807 24.8417 26.8997 20 26.8997C15.1583 26.8997 11.25 23.1807 11.25 18.5736C11.25 13.9665 15.1583 10.2475 20 10.2475C24.8417 10.2475 28.75 13.9665 28.75 18.5736Z" fill="white"/>
<path fill-rule="evenodd" clip-rule="evenodd" d="M40 20.495C40 31.8185 31.05 40.99 20 40.99C8.95 40.99 0 31.8185 0 20.495C0 9.17152 8.95 0 20 0C31.05 0 40 9.17152 40 20.495ZM10 35.2258C10.4 34.5443 14.275 28.1806 19.975 28.1806C25.65 28.1806 29.55 34.5597 29.95 35.2258C32.2747 33.5785 34.1741 31.3772 35.4849 28.8112C36.7957 26.2452 37.4786 23.3913 37.475 20.495C37.475 10.5805 29.65 2.56188 19.975 2.56188C10.3 2.56188 2.475 10.5805 2.475 20.495C2.475 26.5923 5.45 31.9978 10 35.2258Z" fill="white"/>
</svg>
