<svg width="163" height="94" viewBox="0 0 163 94" fill="none" xmlns="http://www.w3.org/2000/svg">
<path d="M116 0C141.957 0 163 21.0426 163 47C163 72.9574 141.957 94 116 94H47C21.0426 94 0 72.9574 0 47C0 21.0426 21.0426 0 47 0H116ZM67.1191 29.9199C58.7671 29.9199 55.791 38.0802 55.791 47.2002C55.7911 56.3201 58.7672 64.4805 67.1191 64.4805C75.4708 64.4802 78.4462 56.32 78.4463 47.2002C78.4463 38.0803 75.4708 29.9202 67.1191 29.9199ZM99.9316 30.4004L83.6602 51.9043L84.4277 55.8398H99.9316V64H103.964V55.8398H108.14V52H103.964V30.4004H99.9316ZM73.3584 38.9443C74.0783 41.2003 74.3184 44.0803 74.3184 47.2002C74.3183 54.7359 72.8788 60.6394 67.1191 60.6396C65.3913 60.6396 64.047 60.112 63.0391 59.2002L73.3584 38.9443ZM67.1191 33.7598C68.9428 33.7598 70.3349 34.3358 71.3428 35.3916L60.9746 55.6963C60.2066 53.3923 59.919 50.4641 59.9189 47.2002C59.9189 39.6642 61.3591 33.7598 67.1191 33.7598ZM99.9316 37.2637V52H88.7959L88.6523 51.2803L99.2598 37.2637H99.9316Z" fill="white" fill-opacity="0.3"/>
</svg>
