<svg width="163" height="94" viewBox="0 0 163 94" fill="none" xmlns="http://www.w3.org/2000/svg">
<path d="M116 0C141.957 0 163 21.0426 163 47C163 72.9574 141.957 94 116 94H47C21.0426 94 0 72.9574 0 47C0 21.0426 21.0426 0 47 0H116ZM67.1191 29.9199C58.7671 29.9199 55.791 38.0802 55.791 47.2002C55.7911 56.3201 58.7672 64.4805 67.1191 64.4805C75.4708 64.4802 78.4462 56.32 78.4463 47.2002C78.4463 38.0803 75.4708 29.9202 67.1191 29.9199ZM95.8516 29.9199C91.0998 29.9201 87.8356 32.7522 85.3877 35.8721L88.4121 38.3203C90.9081 35.0563 93.3082 33.8564 95.9482 33.8564C99.116 33.8565 101.515 35.44 101.516 38.8477C101.516 42.3516 99.26 44.6084 95.0361 44.6084H91.5801V48.4482H95.708C99.9798 48.4482 102.763 50.3199 102.764 54.3516C102.764 58.1435 99.9801 60.5438 95.9482 60.5439C92.2523 60.5439 89.6604 59.1038 87.6924 56.1758L84.6201 58.624C86.5401 61.936 90.2843 64.4805 95.9482 64.4805C102.428 64.4804 106.988 60.1595 106.988 54.3516C106.988 49.9839 104.588 47.3438 101.276 46.3838V45.8076C103.868 44.4636 105.644 42.2555 105.644 38.5117C105.643 33.3279 101.707 29.9199 95.8516 29.9199ZM73.3584 38.9443C74.0783 41.2003 74.3184 44.0803 74.3184 47.2002C74.3183 54.7359 72.8788 60.6394 67.1191 60.6396C65.3913 60.6396 64.047 60.112 63.0391 59.2002L73.3584 38.9443ZM67.1191 33.7598C68.9428 33.7598 70.3349 34.3358 71.3428 35.3916L60.9746 55.6963C60.2066 53.3923 59.919 50.4641 59.9189 47.2002C59.9189 39.6642 61.3591 33.7598 67.1191 33.7598Z" fill="white" fill-opacity="0.3"/>
</svg>
