<svg width="24" height="24" viewBox="0 0 24 24" fill="none" xmlns="http://www.w3.org/2000/svg">
<path d="M21.333 11.667C21.333 10.0837 21.3308 9.39925 21.249 8.84083C20.7368 5.3437 17.9903 2.59637 14.4932 2.08399C13.9347 2.00219 13.2503 2.00001 11.667 2.00001C10.0838 2.00001 9.39925 2.00223 8.84083 2.08399C5.3436 2.59626 2.59626 5.3436 2.08399 8.84083C2.00223 9.39925 2.00001 10.0838 2.00001 11.667C2.00001 13.2503 2.00219 13.9347 2.08399 14.4932C2.59637 17.9903 5.3437 20.7368 8.84083 21.249C9.39925 21.3308 10.0837 21.333 11.667 21.333H18.4541C19.3645 21.333 19.9535 21.3316 20.3897 21.2764C20.8002 21.2244 20.9331 21.1394 21.0059 21.0732C21.0294 21.0519 21.0519 21.0294 21.0732 21.0059C21.1394 20.9331 21.2244 20.8002 21.2764 20.3897C21.3316 19.9535 21.333 19.3645 21.333 18.4541V11.667ZM23.333 18.4541C23.333 19.3116 23.3356 20.0497 23.2607 20.6406C23.1827 21.2569 23.0067 21.8522 22.5527 22.3516C22.4889 22.4218 22.4218 22.4889 22.3516 22.5527C21.8522 23.0067 21.2569 23.1827 20.6406 23.2607C20.0497 23.3356 19.3116 23.333 18.4541 23.333H11.667C10.1542 23.333 9.28976 23.3358 8.55079 23.2275C4.17925 22.5872 0.74581 19.1538 0.105475 14.7822C-0.00269755 14.0434 6.11443e-06 13.1794 6.49516e-06 11.667C6.49516e-06 10.1542 -0.00275283 9.28975 0.105475 8.55079C0.74581 4.17925 4.17925 0.74581 8.55079 0.105475C9.28975 -0.00275283 10.1542 6.49516e-06 11.667 6.49516e-06C13.1794 6.11443e-06 14.0434 -0.00269755 14.7822 0.105475C19.1538 0.74581 22.5872 4.17925 23.2275 8.55079C23.3358 9.28976 23.333 10.1542 23.333 11.667V18.4541Z" fill="white"/>
</svg>
