<svg width="33" height="40" viewBox="0 0 33 40" fill="none" xmlns="http://www.w3.org/2000/svg">
<path d="M0 33.7246V1.34961C0 0.604025 0.604025 0 1.34961 0H24.207C24.9525 0.000150518 25.5566 0.604118 25.5566 1.34961C25.5566 2.0951 24.9525 2.69907 24.207 2.69922H2.69922V33.7246C2.69922 34.5982 3.04263 35.4329 3.64844 36.0459C4.25378 36.6583 5.07168 37 5.9209 37H24.207C24.9525 37.0002 25.5566 37.6041 25.5566 38.3496C25.5566 39.0951 24.9525 39.6991 24.207 39.6992H5.9209C4.34548 39.6992 2.8377 39.0664 1.72852 37.9443C0.619802 36.8226 0 35.3042 0 33.7246ZM23.2334 12C23.7636 11.476 24.6184 11.4808 25.1426 12.0107L32 18.9482C32.5198 19.4741 32.5198 20.3208 32 20.8467L25.1426 27.7842C24.6184 28.3141 23.7636 28.3189 23.2334 27.7949C22.7035 27.2708 22.6986 26.4159 23.2227 25.8857L27.8076 21.2471H8.18262C7.43716 21.2469 6.83301 20.643 6.83301 19.8975C6.83301 19.152 7.43716 18.548 8.18262 18.5479H27.8076L23.2227 13.9092C22.6986 13.379 22.7035 12.5242 23.2334 12Z" fill="white"/>
</svg>
