<svg width="39" height="37" viewBox="0 0 39 37" fill="none" xmlns="http://www.w3.org/2000/svg">
<path d="M19.5009 2.98384C21.793 0.927359 24.7783 -0.137593 27.8253 0.0142701C30.8722 0.166133 33.7418 1.5229 35.8271 3.79755C37.9123 6.0722 39.0496 9.08631 38.9983 12.2022C38.9471 15.3182 37.7113 18.2916 35.5524 20.4933L25.6971 30.5612L19.4972 36.891L5.7657 22.8653L3.44569 20.4914C1.28747 18.2893 0.0523652 15.3159 0.0016271 12.2002C-0.049111 9.0845 1.0885 6.0708 3.17382 3.79657C5.25915 1.52234 8.12866 0.165937 11.1754 0.0142581C14.2221 -0.137421 17.209 0.927524 19.5009 2.98384Z" fill="white"/>
</svg>
