<svg width="24" height="26" viewBox="0 0 24 26" fill="none" xmlns="http://www.w3.org/2000/svg">
<path d="M11.667 17.6768C12.3792 17.6768 12.9901 17.926 13.5869 18.2891C14.1606 18.6381 14.8077 19.1488 15.5791 19.7549L16.4795 20.4629C17.9128 21.5891 18.8997 22.3607 19.665 22.7998C20.4399 23.2443 20.6763 23.1639 20.7705 23.1182C20.8647 23.0724 21.0739 22.9361 21.2031 22.0518C21.3307 21.1787 21.333 19.9261 21.333 18.1035V9C21.333 7.08614 21.3317 5.75127 21.1963 4.74414C21.0648 3.76606 20.8239 3.2479 20.4551 2.87891C20.0861 2.50989 19.5672 2.26924 18.5889 2.1377C17.5818 2.00233 16.2467 2 14.333 2H9C7.08612 2 5.75128 2.00229 4.74414 2.1377C3.7658 2.26924 3.24792 2.5099 2.87891 2.87891C2.5099 3.24792 2.26924 3.7658 2.1377 4.74414C2.00229 5.75128 2 7.08611 2 9V18.1035C2 19.926 2.00236 21.1788 2.12989 22.0518C2.25906 22.9356 2.46827 23.0723 2.5625 23.1182C2.65666 23.1639 2.89291 23.2444 3.66797 22.7998C4.43325 22.3608 5.42027 21.589 6.85352 20.4629L7.75391 19.7549C8.52554 19.1486 9.17328 18.6381 9.74707 18.2891C10.3439 17.926 10.9547 17.6768 11.667 17.6768ZM23.333 18.1035C23.333 19.8583 23.3355 21.2892 23.1816 22.3418C23.0294 23.383 22.6759 24.4157 21.6445 24.917C20.6131 25.4181 19.5827 25.0578 18.6699 24.5342C17.7472 24.0048 16.6239 23.1193 15.2441 22.0352L14.3438 21.3281C13.5336 20.6916 12.9945 20.2694 12.5469 19.9971C12.1227 19.7391 11.8768 19.6768 11.667 19.6768C11.4571 19.6768 11.2107 19.7388 10.7861 19.9971C10.3385 20.2694 9.7994 20.6916 8.98926 21.3281L8.08887 22.0352C6.70909 23.1193 5.58578 24.0048 4.66309 24.5342C3.75026 25.0579 2.72 25.4183 1.68848 24.917C0.657048 24.4157 0.303594 23.383 0.15137 22.3418C-0.00246716 21.2892 2.35521e-06 19.8583 2.39303e-06 18.1035V9C2.39303e-06 7.14265 -0.00221173 5.64892 0.155276 4.47754C0.316637 3.27745 0.662316 2.26738 1.46485 1.46485C2.26738 0.662315 3.27745 0.316637 4.47754 0.155275C5.64892 -0.00221248 7.14265 1.65612e-06 9 1.65612e-06H14.333C16.1902 1.65612e-06 17.6841 -0.00218418 18.8555 0.155275C20.0556 0.31663 21.0666 0.66229 21.8691 1.46485C22.6714 2.26731 23.0164 3.27763 23.1777 4.47754C23.3352 5.64892 23.333 7.14265 23.333 9V18.1035Z" fill="white"/>
</svg>
