<svg width="1340" height="352" viewBox="0 0 1340 352" fill="none" xmlns="http://www.w3.org/2000/svg">
<path d="M186.616 46.3582H42.5739V65.5165H167.93V108.09H42.5739V169.349H0V4.02084H186.616V46.3582Z" fill="white"/>
<path d="M249.19 169.349H206.616V4.02084H249.19V169.349Z" fill="white"/>
<path d="M311.763 126.776H412.995V169.349H269.189V4.02084H311.763V126.776Z" fill="white"/>
<path d="M658.636 4.02084V169.349H616.062V46.3582H612.041L564.028 168.876H527.84L479.116 46.3582H475.569V169.349H432.995V4.02084H507.972L545.815 98.866L582.949 4.02084H658.636Z" fill="white"/>
<path d="M856.027 18.6852C878.024 34.0591 889.85 57.4747 889.85 86.5669C889.85 140.967 850.351 173.37 784.125 173.37C754.796 173.37 730.671 166.984 712.459 154.449C690.462 139.311 678.636 115.896 678.636 86.5669C678.636 32.4034 718.135 0 784.125 0C813.69 0 837.815 6.14955 856.027 18.6852ZM784.125 130.796C847.276 130.796 847.276 97.4469 847.276 86.5669C847.276 57.2382 825.989 42.3374 784.125 42.3374C721.21 42.3374 721.21 75.6869 721.21 86.5669C721.21 115.896 742.497 130.796 784.125 130.796Z" fill="white"/>
<path d="M1112.79 169.349H1062.64L1034.26 121.809H952.424V169.113H909.85V4.02084H1037.1C1055.78 4.02084 1071.39 8.27823 1083.46 16.5565C1098.59 26.9634 1106.87 43.2834 1106.87 62.9147C1106.87 85.3843 1096.47 102.65 1078.49 112.584L1112.79 169.349ZM952.424 46.5947V79.2347H1037.1C1064.3 79.2347 1064.3 68.3547 1064.3 62.9147C1064.3 58.1843 1064.3 46.5947 1037.1 46.5947H952.424Z" fill="white"/>
<path d="M1264.06 4.02084L1338.8 169.349H1291.73L1277.3 138.129L1195.46 137.892L1180.56 169.349H1132.79L1211.55 4.02084H1264.06ZM1215.1 95.5547H1258.85L1237.56 48.2504L1215.1 95.5547Z" fill="white"/>
<path d="M186.616 305.382H42.5739V286.224H167.93V243.65H42.5739V182.391H0V347.72H186.616V305.382Z" fill="white" fill-opacity="0.35"/>
<path d="M249.19 182.391H206.616V347.72H249.19V182.391Z" fill="white" fill-opacity="0.35"/>
<path d="M311.763 224.965H412.995V182.391H269.189V347.72H311.763V224.965Z" fill="white" fill-opacity="0.35"/>
<path d="M658.636 347.72V182.391H616.062V305.382H612.041L564.028 182.864H527.84L479.116 305.382H475.569V182.391H432.995V347.72H507.972L545.815 252.875L582.949 347.72H658.636Z" fill="white" fill-opacity="0.35"/>
<path d="M856.027 333.055C878.024 317.681 889.85 294.266 889.85 265.174C889.85 210.774 850.351 178.37 784.125 178.37C754.796 178.37 730.671 184.756 712.459 197.292C690.462 212.429 678.636 235.845 678.636 265.174C678.636 319.337 718.135 351.741 784.125 351.741C813.69 351.741 837.815 345.591 856.027 333.055ZM784.125 220.944C847.276 220.944 847.276 254.294 847.276 265.174C847.276 294.502 825.989 309.403 784.125 309.403C721.21 309.403 721.21 276.054 721.21 265.174C721.21 235.845 742.497 220.944 784.125 220.944Z" fill="white" fill-opacity="0.35"/>
<path d="M1112.79 182.391H1062.64L1034.26 229.932H952.424V182.628H909.85V347.72H1037.1C1055.78 347.72 1071.39 343.462 1083.46 335.184C1098.59 324.777 1106.87 308.457 1106.87 288.826C1106.87 266.356 1096.47 249.09 1078.49 239.156L1112.79 182.391ZM952.424 305.146V272.506H1037.1C1064.3 272.506 1064.3 283.386 1064.3 288.826C1064.3 293.556 1064.3 305.146 1037.1 305.146H952.424Z" fill="white" fill-opacity="0.35"/>
<path d="M1264.06 347.72L1338.8 182.391H1291.73L1277.3 213.612L1195.46 213.848L1180.56 182.391H1132.79L1211.55 347.72H1264.06ZM1215.1 256.186H1258.85L1237.56 303.49L1215.1 256.186Z" fill="white" fill-opacity="0.35"/>
</svg>
