<svg width="480" height="62" viewBox="0 0 480 62" fill="none" xmlns="http://www.w3.org/2000/svg">
<path d="M452.324 1.4375L479.043 60.5417H462.217L457.059 49.3804L427.803 49.2958L422.476 60.5417H405.396L433.552 1.4375H452.324ZM434.821 34.1604H450.463L442.854 17.2493L434.821 34.1604Z" fill="#101010"/>
<path d="M403.008 60.4572H385.082L374.935 43.4616H345.679V60.3727H330.459V1.35303H375.95C382.63 1.35303 388.211 2.87502 392.523 5.83446C397.934 9.55489 400.894 15.3892 400.894 22.4073C400.894 30.4401 397.173 36.6126 390.747 40.1639L403.008 60.4572ZM345.679 16.573V28.2416H375.95C385.674 28.2416 385.674 24.3521 385.674 22.4073C385.674 20.7162 385.674 16.573 375.95 16.573H345.679Z" fill="#101010"/>
<path d="M310.169 6.67987C318.033 12.176 322.261 20.5469 322.261 30.9473C322.261 50.395 308.14 61.9791 284.464 61.9791C273.98 61.9791 265.355 59.6961 258.844 55.2146C250.98 49.8031 246.753 41.4321 246.753 30.9473C246.753 11.5841 260.873 0 284.464 0C295.034 0 303.658 2.19844 310.169 6.67987ZM284.464 46.7591C307.041 46.7591 307.041 34.8368 307.041 30.9473C307.041 20.4624 299.431 15.1354 284.464 15.1354C261.973 15.1354 261.973 27.0577 261.973 30.9473C261.973 41.4321 269.583 46.7591 284.464 46.7591Z" fill="#101010"/>
<path d="M238.628 1.4375V60.5417H223.408V16.5729H221.97L204.806 60.3726H191.869L174.45 16.5729H173.182V60.5417H157.962V1.4375H184.766L198.295 35.3442L211.57 1.4375H238.628Z" fill="#101010"/>
<path d="M115.216 45.3217H151.406V60.5417H99.9963V1.4375H115.216V45.3217Z" fill="#101010"/>
<path d="M89.2068 60.5417H73.9868V1.4375H89.2068V60.5417Z" fill="#101010"/>
<path d="M66.7142 16.5729H15.22V23.4219H60.0343V38.6418H15.22V60.5417H0V1.4375H66.7142V16.5729Z" fill="#101010"/>
</svg>
