<svg width="554" height="54" viewBox="0 0 554 54" fill="none" xmlns="http://www.w3.org/2000/svg">
<path d="M54.24 23.847H54.78L54.36 32.787L54.06 33.627C50.64 42.387 41.64 47.187 28.74 47.187C21.3 47.187 15.18 45.567 10.56 42.387C4.98 38.547 1.98 32.607 1.98 25.167C1.98 11.427 12 3.20699 28.74 3.20699C41.94 3.20699 51.3 8.48699 54.42 17.787L44.16 21.207C42.06 14.907 33.6 13.947 28.74 13.947C12.78 13.947 12.78 22.407 12.78 25.167C12.78 32.607 18.18 36.387 28.74 36.387C33.42 36.387 39.12 35.607 42.3 32.367L28.8 29.727L29.58 23.007L54.24 23.847ZM112.273 46.107H99.5531L92.3531 34.047H71.5931V46.047H60.7931V4.16699H93.0731C97.8131 4.16699 101.773 5.24699 104.833 7.34699C108.673 9.98699 110.773 14.127 110.773 19.107C110.773 24.807 108.133 29.187 103.573 31.707L112.273 46.107ZM71.5931 14.967V23.247H93.0731C99.9731 23.247 99.9731 20.487 99.9731 19.107C99.9731 17.907 99.9731 14.967 93.0731 14.967H71.5931ZM147.268 4.22699L166.228 46.167H154.288L150.628 38.247L129.868 38.187L126.088 46.167H113.968L133.948 4.22699H147.268ZM134.848 27.447H145.948L140.548 15.447L134.848 27.447ZM181.046 46.167H170.246V4.22699H181.046V46.167ZM228.663 4.22699H239.463V46.107H227.523L199.503 17.127V46.167H188.703V4.22699H202.023L228.663 31.767V4.22699ZM286.841 21.027C295.301 23.487 296.561 29.907 296.561 33.567C296.561 37.167 295.301 43.587 286.841 46.047C282.461 47.307 277.001 47.307 271.181 47.307C265.601 47.307 260.321 47.307 255.881 45.987C247.361 43.527 245.921 37.107 245.801 33.507L256.601 33.207C256.661 34.287 256.661 35.007 258.941 35.667C261.821 36.507 266.381 36.507 271.181 36.507C276.221 36.507 280.961 36.507 283.841 35.667C285.761 35.127 285.761 34.647 285.761 33.567C285.761 32.427 285.761 32.007 283.841 31.407C280.961 30.567 276.221 30.567 271.181 30.567C265.121 30.567 259.781 30.507 255.521 29.187C247.061 26.667 245.801 20.367 245.801 16.827C245.801 13.227 247.061 6.80699 255.581 4.34699C259.901 3.08699 265.361 3.08699 271.181 3.08699C271.541 3.08699 271.961 3.08699 272.381 3.08699C279.101 3.02699 288.281 3.02699 293.381 8.24699C295.601 10.587 296.681 13.647 296.561 17.067L285.761 16.587C285.821 15.987 285.701 15.867 285.581 15.747C283.721 13.827 275.801 13.887 272.441 13.887C271.961 13.887 271.601 13.887 271.181 13.887C266.141 13.887 261.401 13.887 258.521 14.727C256.601 15.267 256.601 15.687 256.601 16.827C256.601 17.787 256.601 18.267 258.581 18.867C261.461 19.707 266.201 19.767 271.181 19.767C277.001 19.767 282.461 19.767 286.841 21.027ZM344.901 4.22699H355.701V46.167H344.901V30.567H313.761V46.167H302.961V4.22699H313.761V19.767H344.901V4.22699ZM374.171 46.167H363.371V4.22699H374.171V46.167ZM429.168 14.967H392.628V19.827H424.428V30.627H392.628V46.167H381.828V4.22699H429.168V14.967ZM482.268 4.22699V14.967H462.228V46.167H451.428V14.967H431.388V4.22699H482.268Z" fill="white"/>
<path d="M530.189 0C531.05 0 531.48 0.000304623 531.766 0.258789C532.051 0.517319 532.094 0.945033 532.18 1.80078L532.739 7.39941C532.903 9.03286 532.984 9.85005 533.537 10.0791C534.09 10.3081 534.726 9.78843 535.996 8.74902L540.352 5.18555C541.017 4.64127 541.35 4.36956 541.734 4.38867C542.119 4.40787 542.423 4.71143 543.031 5.31934L548.014 10.3018C548.622 10.91 548.926 11.2148 548.945 11.5996C548.964 11.9843 548.692 12.3169 548.147 12.9824L544.585 17.3369C543.546 18.607 543.026 19.2422 543.255 19.7949C543.484 20.3477 544.301 20.4293 545.934 20.5928L551.533 21.1533C552.389 21.239 552.817 21.2827 553.075 21.5684C553.334 21.854 553.334 22.2837 553.334 23.1436V30.1895C553.334 31.0496 553.334 31.4799 553.075 31.7656C552.817 32.0513 552.389 32.0942 551.533 32.1797L545.935 32.7393C544.301 32.9025 543.484 32.9843 543.255 33.5371C543.026 34.0899 543.546 34.7254 544.586 35.9961L548.147 40.3506C548.692 41.0162 548.964 41.3487 548.945 41.7334C548.926 42.1182 548.622 42.423 548.014 43.0312L543.032 48.0127C542.424 48.6209 542.119 48.9251 541.734 48.9443C541.35 48.9634 541.017 48.691 540.352 48.1465L535.996 44.584C534.725 43.5443 534.09 43.0239 533.537 43.2529C532.984 43.482 532.902 44.2991 532.739 45.9326L532.18 51.5332C532.094 52.3889 532.051 52.8167 531.766 53.0752C531.48 53.3337 531.05 53.334 530.189 53.334H523.144C522.284 53.334 521.854 53.3336 521.568 53.0752C521.283 52.8167 521.239 52.389 521.153 51.5332L520.593 45.9336C520.429 44.3005 520.348 43.4838 519.795 43.2549C519.242 43.0261 518.607 43.5457 517.337 44.585L512.982 48.1475C512.317 48.6921 511.984 48.9644 511.6 48.9453C511.215 48.9261 510.91 48.6228 510.302 48.0146L505.319 43.0312C504.711 42.4231 504.407 42.1192 504.388 41.7344C504.369 41.3496 504.641 41.0163 505.186 40.3506L508.748 35.9961C509.787 34.7255 510.307 34.0899 510.078 33.5371C509.849 32.9844 509.032 32.9025 507.398 32.7393L501.801 32.1797C500.945 32.0942 500.517 32.0513 500.259 31.7656C500 31.48 500 31.0503 500 30.1904V23.1436C500 22.2837 500 21.854 500.259 21.5684C500.517 21.2827 500.945 21.2399 501.801 21.1543L507.4 20.5938C509.034 20.4304 509.851 20.3487 510.08 19.7959C510.309 19.2431 509.789 18.6074 508.75 17.3369L505.187 12.9814C504.642 12.3158 504.37 11.9834 504.389 11.5986C504.408 11.2138 504.711 10.909 505.319 10.3008L510.302 5.31836C510.91 4.71004 511.215 4.40593 511.6 4.38672C511.984 4.3676 512.318 4.63993 512.983 5.18457L517.337 8.74707C518.607 9.78654 519.243 10.3061 519.796 10.0771C520.349 9.84818 520.43 9.03087 520.594 7.39746L521.153 1.80078C521.239 0.944935 521.283 0.517313 521.568 0.258789C521.854 0.000382939 522.284 3.72532e-09 523.144 0H530.189ZM526.667 16C520.776 16 516 20.776 516 26.667C516 32.558 520.776 37.334 526.667 37.334C532.558 37.334 537.334 32.558 537.334 26.667C537.334 20.776 532.558 16 526.667 16Z" fill="white"/>
</svg>
