<svg width="310" height="40" viewBox="0 0 310 40" fill="none" xmlns="http://www.w3.org/2000/svg">
<path d="M291.92 0.927696L309.164 39.0723H298.305L294.976 31.869L276.095 31.8145L272.657 39.0723H261.634L279.806 0.927696H291.92ZM280.624 22.0464H290.72L285.808 11.1323L280.624 22.0464Z" fill="white"/>
<path d="M260.093 39.0177H248.524L241.975 28.0491H223.094V38.9632H213.271V0.873123H242.63C246.941 0.873123 250.543 1.85539 253.326 3.76535C256.819 6.16644 258.729 9.93179 258.729 14.4611C258.729 19.6453 256.327 23.6289 252.18 25.9209L260.093 39.0177ZM223.094 10.6958V18.2265H242.63C248.906 18.2265 248.906 15.7162 248.906 14.4611C248.906 13.3697 248.906 10.6958 242.63 10.6958H223.094Z" fill="white"/>
<path d="M200.177 4.31105C205.252 7.85812 207.98 13.2606 207.98 19.9727C207.98 32.5239 198.867 40 183.587 40C176.821 40 171.254 38.5266 167.053 35.6344C161.978 32.1419 159.249 26.7394 159.249 19.9727C159.249 7.47612 168.362 0 183.587 0C190.409 0 195.975 1.41882 200.177 4.31105ZM183.587 30.1774C198.158 30.1774 198.158 22.4829 198.158 19.9727C198.158 13.206 193.246 9.76808 183.587 9.76808C169.072 9.76808 169.072 17.4625 169.072 19.9727C169.072 26.7394 173.983 30.1774 183.587 30.1774Z" fill="white"/>
<path d="M154.005 0.927696V39.0723H144.183V10.6958H143.255L132.177 38.9632H123.828L112.587 10.6958H111.768V39.0723H101.945V0.927696H119.244L127.975 22.8104L136.543 0.927696H154.005Z" fill="white"/>
<path d="M74.3583 29.2497H97.7144V39.0723H64.5356V0.927696H74.3583V29.2497Z" fill="white"/>
<path d="M57.5722 39.0723H47.7495V0.927696H57.5722V39.0723Z" fill="white"/>
<path d="M43.0559 10.6958H9.82265V15.116H38.7449V24.9386H9.82265V39.0723H0V0.927696H43.0559V10.6958Z" fill="white"/>
</svg>
