<svg width="217" height="28" viewBox="0 0 217 28" fill="none" xmlns="http://www.w3.org/2000/svg">
<path d="M204.345 0.649414L216.416 27.3506H208.814L206.484 22.3084L193.267 22.2702L190.861 27.3506H183.145L195.865 0.649414H204.345ZM196.438 15.4325H203.505L200.067 7.79266L196.438 15.4325Z" fill="white"/>
<path d="M182.065 27.3126H173.967L169.383 19.6345H156.166V27.2744H149.29V0.611328H169.841C172.859 0.611328 175.38 1.29891 177.328 2.63589C179.773 4.31665 181.11 6.95239 181.11 10.1229C181.11 13.7518 179.429 16.5404 176.526 18.1448L182.065 27.3126ZM156.166 7.48718V12.7587H169.841C174.234 12.7587 174.234 11.0015 174.234 10.1229C174.234 9.35894 174.234 7.48718 169.841 7.48718H156.166Z" fill="white"/>
<path d="M140.123 3.01774C143.676 5.50068 145.586 9.2824 145.586 13.9809C145.586 22.7667 139.206 28 128.51 28C123.774 28 119.877 26.9686 116.936 24.9441C113.384 22.4993 111.474 18.7176 111.474 13.9809C111.474 5.23329 117.853 0 128.51 0C133.285 0 137.182 0.993177 140.123 3.01774ZM128.51 21.1241C138.71 21.1241 138.71 15.7381 138.71 13.9809C138.71 9.2442 135.272 6.83765 128.51 6.83765C118.349 6.83765 118.349 12.2237 118.349 13.9809C118.349 18.7176 121.787 21.1241 128.51 21.1241Z" fill="white"/>
<path d="M107.803 0.649414V27.3506H100.927V7.48707H100.278L92.5237 27.2742H86.6792L78.8102 7.48707H78.2372V27.3506H71.3613V0.649414H83.4705L89.5823 15.9673L95.5796 0.649414H107.803Z" fill="white"/>
<path d="M52.0497 20.4748H68.3989V27.3506H45.1738V0.649414H52.0497V20.4748Z" fill="white"/>
<path d="M40.2997 27.3506H33.4238V0.649414H40.2997V27.3506Z" fill="white"/>
<path d="M30.1392 7.48707H6.87585V10.5812H27.1214V17.4571H6.87585V27.3506H0V0.649414H30.1392V7.48707Z" fill="white"/>
</svg>
