<svg width="1194" height="198" viewBox="0 0 1194 198" fill="none" xmlns="http://www.w3.org/2000/svg">
<g style="mix-blend-mode:hard-light">
<path d="M0.73254 158.534H141.977L70.5859 0L0.73254 158.534Z" fill="url(#paint0_linear_223_558)"/>
<path d="M142.705 163.284C142.705 182.449 110.76 197.986 71.3526 197.986C31.9456 197.986 0 182.449 0 163.284C0 144.118 31.9456 128.582 71.3526 128.582C110.76 128.582 142.705 144.118 142.705 163.284Z" fill="white"/>
<path d="M1138.68 50.7074L1194 173.084H1159.16L1148.48 149.975L1087.9 149.8L1076.88 173.084H1041.51L1099.81 50.7074H1138.68ZM1102.44 118.461H1134.82L1119.07 83.4463L1102.44 118.461Z" fill="white"/>
<path d="M1036.57 172.911H999.451L978.442 137.721H917.866V172.735H886.353V50.5335H980.543C994.374 50.5335 1005.93 53.6848 1014.86 59.8124C1026.06 67.5157 1032.19 79.5958 1032.19 94.127C1032.19 110.759 1024.49 123.54 1011.18 130.893L1036.57 172.911ZM917.866 82.0469V106.207H980.543C1000.68 106.207 1000.68 98.1537 1000.68 94.127C1000.68 90.6255 1000.68 82.0469 980.543 82.0469H917.866Z" fill="white"/>
<path d="M844.336 61.5619C860.618 72.9417 869.371 90.2741 869.371 111.808C869.371 152.075 840.134 176.061 791.113 176.061C769.404 176.061 751.546 171.334 738.066 162.055C721.784 150.85 713.03 133.517 713.03 111.808C713.03 71.7162 742.267 47.731 791.113 47.731C812.997 47.731 830.855 52.2829 844.336 61.5619ZM791.113 144.547C837.858 144.547 837.858 119.862 837.858 111.808C837.858 90.099 822.101 79.0693 791.113 79.0693C744.543 79.0693 744.543 103.755 744.543 111.808C744.543 133.517 760.3 144.547 791.113 144.547Z" fill="white"/>
<path d="M696.21 50.7074V173.084H664.697V82.0457H661.721L626.181 172.734H599.394L563.329 82.0457H560.703V173.084H529.189V50.7074H584.688L612.7 120.912L640.187 50.7074H696.21Z" fill="white"/>
<path d="M440.687 141.571H515.619V173.084H409.174V50.7074H440.687V141.571Z" fill="white"/>
<path d="M386.829 173.084H355.315V50.7074H386.829V173.084Z" fill="white"/>
<path d="M340.261 82.0457H233.641V96.2267H326.43V127.74H233.641V173.084H202.127V50.7074H340.261V82.0457Z" fill="white"/>
</g>
<defs>
<linearGradient id="paint0_linear_223_558" x1="597" y1="0" x2="597" y2="189.166" gradientUnits="userSpaceOnUse">
<stop stop-color="#101010"/>
<stop offset="0.875" stop-color="#CFCFCF"/>
</linearGradient>
</defs>
</svg>
