<svg width="46" height="35" viewBox="0 0 46 35" fill="none" xmlns="http://www.w3.org/2000/svg">
<path d="M44 5.19043C44 4.17448 43.9983 3.51285 43.9326 3.02442C43.8708 2.5649 43.7697 2.41037 43.6797 2.32032C43.5896 2.23026 43.4351 2.12919 42.9756 2.06739C42.4872 2.00172 41.8255 2 40.8096 2H5.19043C4.17448 2 3.51285 2.00172 3.02442 2.06739C2.5649 2.12919 2.41037 2.23026 2.32032 2.32032C2.23026 2.41037 2.12919 2.5649 2.06739 3.02442C2.00172 3.51285 2 4.17448 2 5.19043V29.8096C2 30.8255 2.00172 31.4872 2.06739 31.9756C2.12919 32.4351 2.23026 32.5896 2.32032 32.6797C2.41037 32.7697 2.5649 32.8708 3.02442 32.9326C3.51285 32.9983 4.17448 33 5.19043 33H40.8096C41.8255 33 42.4872 32.9983 42.9756 32.9326C43.4351 32.8708 43.5896 32.7697 43.6797 32.6797C43.7697 32.5896 43.8708 32.4351 43.9326 31.9756C43.9983 31.4872 44 30.8255 44 29.8096V5.19043ZM46 29.8096C46 30.769 46.0018 31.5895 45.9141 32.2422C45.8224 32.9235 45.6173 33.5702 45.0938 34.0938C44.5702 34.6173 43.9235 34.8224 43.2422 34.9141C42.5895 35.0018 41.769 35 40.8096 35H5.19043C4.23102 35 3.41049 35.0018 2.75782 34.9141C2.07651 34.8224 1.42976 34.6173 0.906253 34.0938C0.382747 33.5702 0.177586 32.9235 0.0859404 32.2422C-0.00180931 31.5895 2.78969e-06 30.769 2.85865e-06 29.8096V5.19043C2.79042e-06 4.23102 -0.00180932 3.41049 0.0859404 2.75782C0.177586 2.07651 0.382747 1.42976 0.906253 0.906253C1.42976 0.382747 2.07651 0.177586 2.75782 0.0859404C3.41049 -0.00180931 4.23102 2.78992e-06 5.19043 2.85864e-06H40.8096C41.769 2.79041e-06 42.5895 -0.00180932 43.2422 0.0859404C43.9235 0.177586 44.5702 0.382747 45.0938 0.906253C45.6173 1.42976 45.8224 2.07651 45.9141 2.75782C46.0018 3.41049 46 4.23102 46 5.19043V29.8096Z" fill="white"/>
<path d="M45.4492 10.1445L24.3857 20.6758C23.5145 21.1113 22.4894 21.1113 21.6182 20.6758L0.554688 10.1445L1.44922 8.35547L22.5117 18.8867C22.8201 19.0409 23.1838 19.0409 23.4922 18.8867L44.5547 8.35547L45.4492 10.1445Z" fill="white"/>
</svg>
