<svg width="27" height="24" viewBox="0 0 27 24" fill="none" xmlns="http://www.w3.org/2000/svg">
<path d="M13.2531 3.36282C15.6123 -0.733264 21.461 -1.21151 24.4289 2.6138L24.841 3.14505C27.3508 6.37991 26.9882 10.9931 24.0041 13.7964L14.6232 22.6089C14.481 22.7425 14.3043 22.9114 14.133 23.0347C13.9383 23.1748 13.6444 23.3373 13.2541 23.3374C12.8636 23.3374 12.569 23.1749 12.3742 23.0347C12.203 22.9114 12.0262 22.7425 11.884 22.6089L2.50311 13.7964C-0.480814 10.9931 -0.843568 6.37985 1.66619 3.14505L2.07928 2.6138C5.04707 -1.21125 10.8937 -0.732717 13.2531 3.36282ZM22.8478 3.83938C20.6797 1.04559 16.3282 1.51405 14.8049 4.70559C14.1821 6.01036 12.3251 6.01037 11.7023 4.70559C10.1789 1.5141 5.82738 1.04545 3.65936 3.83938L3.24725 4.37161C1.3698 6.79144 1.64001 10.2424 3.87225 12.3394L13.2541 21.1519L22.6349 12.3394C24.8672 10.2424 25.1382 6.79145 23.2609 4.37161L22.8478 3.83938Z" fill="white"/>
</svg>
