<svg width="76" height="62" viewBox="0 0 76 62" fill="none" xmlns="http://www.w3.org/2000/svg">
<path d="M63.4165 6.67987C71.2802 12.176 75.5079 20.5469 75.5079 30.9473C75.5079 50.395 61.3872 61.9791 37.7117 61.9791C27.2268 61.9791 18.6022 59.6961 12.0914 55.2146C4.22778 49.8031 0 41.4321 0 30.9473C0 11.5841 14.1207 0 37.7117 0C48.2811 0 56.9058 2.19844 63.4165 6.67987ZM37.7117 46.7591C60.288 46.7591 60.288 34.8368 60.288 30.9473C60.288 20.4624 52.678 15.1354 37.7117 15.1354C15.22 15.1354 15.22 27.0577 15.22 30.9473C15.22 41.4321 22.8299 46.7591 37.7117 46.7591Z" fill="#101010"/>
</svg>
