<svg width="49" height="40" viewBox="0 0 49 40" fill="none" xmlns="http://www.w3.org/2000/svg">
<path d="M40.9277 4.31105C46.0027 7.85812 48.7313 13.2606 48.7313 19.9727C48.7313 32.5239 39.618 40 24.3383 40C17.5716 40 12.0055 38.5266 7.80356 35.6344C2.72852 32.1419 0 26.7394 0 19.9727C0 7.47612 9.11324 0 24.3383 0C31.1596 0 36.7258 1.41882 40.9277 4.31105ZM24.3383 30.1774C38.9086 30.1774 38.9086 22.4829 38.9086 19.9727C38.9086 13.206 33.9973 9.76808 24.3383 9.76808C9.82265 9.76808 9.82265 17.4625 9.82265 19.9727C9.82265 26.7394 14.734 30.1774 24.3383 30.1774Z" fill="white"/>
</svg>
